<?xml version="1.0" standalone="no"?>
<!DOCTYPE svg PUBLIC "-//W3C//DTD SVG 20010904//EN"
 "http://www.w3.org/TR/2001/REC-SVG-20010904/DTD/svg10.dtd">
<svg version="1.0" xmlns="http://www.w3.org/2000/svg"
 width="500.000000pt" height="500.000000pt" viewBox="0 0 500.000000 500.000000"
 preserveAspectRatio="xMidYMid meet">

<g transform="translate(0.000000,500.000000) scale(0.100000,-0.100000)"
fill="#000000" stroke="none">
<path d="M2290 4489 c-172 -18 -321 -54 -502 -123 -943 -358 -1471 -1367
-1227 -2348 202 -819 905 -1424 1748 -1508 824 -81 1619 364 1986 1113 346
706 244 1553 -260 2155 -428 514 -1080 779 -1745 711z m451 -289 c28 -23 22
-25 -16 -6 -34 18 -69 7 -73 -23 -2 -12 2 -29 8 -37 15 -17 61 -19 78 -2 6 6
15 8 19 4 12 -12 -19 -26 -59 -26 -27 0 -41 6 -52 22 -21 30 -20 44 4 68 25
25 61 26 91 0z m-405 -35 c8 -59 -2 -70 -13 -13 l-9 43 -13 -47 c-8 -27 -19
-48 -25 -48 -6 0 -24 14 -39 32 l-28 33 6 -37 c4 -24 2 -38 -5 -38 -5 0 -10 6
-10 13 0 6 -3 29 -6 50 -8 48 12 49 46 2 24 -34 40 -44 40 -26 0 18 31 81 40
81 5 0 12 -20 16 -45z m580 -12 c-4 -16 -9 -35 -12 -45 -3 -12 4 -18 26 -23
42 -9 30 -19 -13 -11 l-33 6 10 50 c5 28 14 50 19 50 5 0 6 -12 3 -27z m-849
-48 c7 -44 -12 -65 -58 -65 -33 0 -47 16 -54 61 -5 34 -5 34 14 -8 21 -44 37
-51 73 -32 20 11 21 32 2 84 -5 15 -4 17 5 9 6 -6 15 -28 18 -49z m1117 -51
c6 -56 0 -87 -10 -48 -7 25 -55 45 -78 32 -9 -5 -16 -6 -16 -2 0 10 73 73 86
74 6 0 14 -25 18 -56z m-1378 1 c-18 -14 -18 -17 -3 -55 20 -52 6 -52 -18 0
-15 34 -20 38 -37 29 -11 -6 -22 -8 -25 -6 -6 7 67 46 87 46 11 0 10 -3 -4
-14z m1605 -56 c11 -11 18 -23 16 -26 -3 -2 -15 5 -26 16 -12 12 -25 21 -29
21 -23 0 -19 -17 9 -46 34 -35 34 -64 1 -64 -26 0 -72 38 -72 58 1 13 6 10 21
-10 11 -16 29 -28 40 -28 27 0 24 12 -11 43 -18 16 -27 33 -24 42 9 22 51 18
75 -6z m-1777 -79 c32 -49 22 -57 -47 -36 -50 15 -56 10 -31 -30 9 -13 15 -27
12 -30 -5 -4 -58 70 -58 82 0 7 54 0 99 -13 l25 -6 -23 36 c-31 50 -10 47 23
-3z m1208 -54 c461 -116 821 -442 983 -891 60 -166 78 -276 78 -475 0 -193
-15 -287 -72 -460 -96 -286 -295 -542 -560 -720 -131 -88 -339 -171 -518 -207
-133 -26 -395 -24 -531 5 -565 122 -982 538 -1104 1105 -31 145 -31 407 0 554
94 439 359 785 752 983 111 56 163 75 282 106 139 36 216 43 398 39 136 -4
173 -9 292 -39z m770 7 c18 -16 25 -43 10 -43 -4 0 -12 10 -17 22 -11 25 -45
37 -45 17 0 -7 11 -25 25 -39 48 -50 -1 -85 -50 -35 -14 13 -25 32 -25 42 0
12 6 8 20 -14 12 -20 28 -33 40 -33 24 0 26 13 4 30 -21 19 -36 49 -29 60 10
15 47 12 67 -7z m-2183 -111 c29 -13 32 -16 16 -20 -34 -8 -65 -34 -65 -56 -1
-35 -17 2 -25 58 -8 54 -9 54 74 18z m2361 -41 c19 -16 33 -32 30 -35 -3 -3
-19 6 -34 19 -31 26 -38 29 -50 18 -3 -4 8 -22 26 -40 38 -39 26 -45 -14 -6
-23 22 -31 24 -41 14 -10 -10 -5 -18 22 -42 19 -16 33 -31 30 -33 -2 -3 -22
10 -44 29 l-40 33 34 36 c19 20 38 36 41 36 3 0 21 -13 40 -29z m-2548 -98
c15 -15 28 -37 28 -49 0 -21 -41 -64 -61 -64 -13 0 -76 59 -63 60 6 0 19 -9
29 -20 22 -24 42 -25 67 -3 25 22 23 32 -14 70 -38 39 -26 45 14 6z m2700 -65
c20 -16 33 -58 19 -58 -6 0 -11 6 -11 14 0 19 -29 48 -40 41 -5 -3 0 -24 10
-47 21 -48 19 -58 -15 -58 -17 0 -29 9 -40 30 -17 33 -20 60 -5 60 6 0 10 -11
10 -23 0 -25 35 -65 47 -54 3 4 -2 24 -12 46 -24 54 -4 80 37 49z m-2831 -150
c6 -11 8 -31 4 -45 -4 -16 -2 -22 5 -18 5 3 10 13 10 21 0 8 5 14 10 14 15 0
12 -27 -5 -44 -9 -8 -21 -13 -29 -10 -7 3 -19 -2 -26 -11 -19 -23 -57 -18 -76
10 -14 21 -14 30 -4 55 23 55 88 71 111 28z m2987 -1760 c20 -20 14 -67 -13
-93 -45 -46 -102 -25 -93 35 5 35 -8 40 -22 8 -9 -21 -9 -20 -7 7 2 24 7 31
27 33 14 2 29 8 35 13 13 13 59 11 73 -3z m-2858 -98 c13 -24 13 -63 0 -55 -5
3 -7 12 -4 19 7 18 -30 61 -44 52 -9 -5 -8 -15 3 -36 19 -37 19 -59 0 -67 -29
-10 -79 57 -54 73 5 3 9 -3 9 -13 0 -22 18 -43 38 -43 10 0 12 6 7 18 -29 69
-30 73 -15 82 17 11 46 -3 60 -30z m2697 -122 c34 -32 28 -44 -8 -14 -38 33
-54 33 -75 1 -16 -25 -16 -27 10 -53 36 -39 33 -52 -4 -17 -34 32 -37 51 -14
83 20 28 61 29 91 0z m-2555 -45 c15 -15 28 -31 28 -37 0 -5 -14 -25 -32 -43
l-32 -33 -33 32 c-18 18 -33 36 -33 42 0 5 15 -5 34 -23 41 -40 62 -24 22 18
-38 39 -32 51 7 13 26 -25 36 -29 45 -20 9 9 5 19 -20 45 -38 39 -26 45 14 6z
m2356 -135 c6 -29 7 -56 3 -61 -4 -4 -32 4 -62 17 -40 19 -48 25 -30 25 30 1
72 38 64 57 -3 8 -1 14 5 14 5 0 14 -24 20 -52z m-2180 -14 c14 -9 22 -25 22
-42 -1 -27 -1 -27 -15 6 -8 17 -16 32 -19 32 -2 0 -11 3 -20 6 -22 8 -20 -13
4 -43 27 -35 26 -63 -2 -63 -28 0 -58 28 -58 54 1 19 3 18 16 -6 8 -16 23 -28
35 -28 17 0 18 3 9 20 -6 11 -15 20 -20 20 -12 0 -23 37 -15 50 9 15 37 12 63
-6z m2002 -119 c13 -24 22 -47 19 -50 -3 -3 -28 2 -55 10 -67 20 -69 20 -44
-21 12 -19 20 -37 17 -40 -6 -7 -57 70 -57 86 0 12 11 13 42 1 13 -4 36 -11
52 -15 l29 -7 -22 36 c-23 40 -25 45 -13 45 4 0 18 -20 32 -45z m-1800 -15
c11 -11 20 -28 20 -37 -1 -16 -2 -15 -12 2 -14 24 -39 44 -55 45 -22 0 -14
-21 18 -51 32 -30 34 -52 5 -57 -22 -5 -66 24 -66 43 0 9 9 5 26 -12 19 -19
28 -23 37 -14 8 8 2 18 -23 39 -23 20 -31 34 -27 45 9 23 53 21 77 -3z m160
-93 c0 -19 47 -39 74 -32 15 4 8 -6 -23 -35 -24 -22 -48 -37 -51 -33 -13 14
-22 113 -10 113 5 0 10 -6 10 -13z m1426 -53 c13 4 24 4 24 1 0 -6 -50 -31
-80 -39 -24 -7 -24 -6 -6 8 16 13 17 19 7 47 -17 50 -12 58 10 16 17 -33 24
-38 45 -33z m-221 -34 c16 -32 20 -64 6 -56 -4 3 -11 19 -14 35 -7 34 -36 47
-67 31 -18 -10 -20 -18 -15 -58 4 -33 2 -41 -4 -27 -16 34 -13 83 7 94 35 21
71 13 87 -19z m-926 5 c2 -2 -3 -28 -10 -57 -7 -29 -15 -46 -17 -36 -1 9 1 31
6 50 8 32 7 33 -27 45 l-36 12 40 -5 c22 -3 42 -7 44 -9z m694 -82 c7 -56 -11
-57 -49 -2 l-28 41 -23 -53 c-14 -30 -27 -49 -32 -43 -13 13 -21 93 -10 100 5
3 9 -8 9 -25 0 -46 15 -45 34 2 l17 42 35 -40 34 -40 -5 45 c-4 30 -3 40 3 30
5 -8 12 -34 15 -57z m-456 36 c14 -12 17 -57 5 -76 -14 -21 -60 -26 -87 -9
-14 9 -25 22 -25 28 0 6 8 4 18 -5 35 -32 92 -16 92 25 0 30 -79 54 -95 28 -3
-5 -12 -10 -18 -10 -7 1 -1 10 13 21 25 22 69 21 97 -2z"/>
<path d="M3135 4070 c-10 -11 -13 -20 -7 -20 6 0 17 -3 26 -6 12 -5 16 0 16
20 0 31 -11 33 -35 6z"/>
<path d="M2340 3890 c-160 -20 -334 -72 -471 -140 -101 -51 -243 -153 -333
-240 -214 -206 -344 -441 -407 -741 -31 -148 -31 -390 0 -539 61 -287 173
-499 375 -708 336 -349 851 -496 1326 -380 366 90 690 331 877 653 284 490
246 1105 -98 1555 -90 119 -250 263 -384 347 -117 74 -325 152 -470 178 -112
20 -316 27 -415 15z m-73 -709 c104 -22 183 -54 255 -106 l49 -36 27 19 c110
78 223 107 417 107 170 0 224 -10 335 -63 163 -77 270 -244 270 -421 l0 -51
-188 0 -188 0 -12 62 c-20 107 -86 167 -196 175 -115 10 -200 -47 -232 -154
-19 -64 -19 -313 1 -379 33 -110 117 -162 242 -151 123 12 203 90 203 198 l0
29 186 0 187 0 -6 -72 c-7 -98 -29 -163 -79 -238 -96 -145 -275 -220 -521
-220 -168 0 -306 38 -427 116 -25 16 -28 15 -87 -23 l-62 -40 147 -149 147
-149 -243 -3 c-134 -1 -249 1 -256 5 -7 5 -55 55 -106 113 l-94 105 -85 7
c-392 33 -601 265 -601 667 0 370 190 608 525 661 99 15 295 11 392 -9z"/>
<path d="M1962 2878 c-55 -14 -123 -75 -153 -135 -19 -41 -23 -68 -27 -185 -4
-118 -1 -146 17 -206 40 -131 145 -194 295 -177 103 11 164 57 210 155 18 40
21 64 21 200 0 136 -3 160 -21 200 -47 102 -116 148 -231 155 -37 2 -87 -1
-111 -7z"/>
<path d="M1367 3746 c4 -21 8 -24 24 -15 20 10 26 29 10 29 -5 0 -16 3 -24 6
-11 4 -13 -1 -10 -20z"/>
<path d="M1030 3400 c-37 -37 -15 -98 30 -82 35 12 52 66 28 90 -17 17 -35 15
-58 -8z"/>
<path d="M4021 1624 c-25 -32 -26 -47 -5 -68 21 -22 31 -20 59 9 28 27 30 37
15 66 -15 27 -45 24 -69 -7z"/>
<path d="M3697 1235 c-18 -13 -18 -14 2 -24 27 -15 31 -14 31 8 0 27 -12 32
-33 16z"/>
<path d="M1920 944 c0 -25 6 -25 38 -1 11 8 11 12 0 18 -24 16 -38 9 -38 -17z"/>
</g>
</svg>
